# AST/ASF file generated using VICON BodyLanguage
# -----------------------------------------------
:version 1.10
:name VICON
:units
  mass 1.0
  length 0.45
  angle deg
:documentation
   .ast/.asf automatically generated from VICON data using
   VICON BodyBuilder and BodyLanguage model FoxedUp or BRILLIANT.MOD
:root
   order TX TY TZ RX RY RZ
   axis XYZ
   position 0 0 0  
   orientation 0 0 0 
:bonedata
  begin
     id 1 
     name lhipjoint
     direction 0.702568 -0.596508 0.388042 
     length 2.56661 
     axis 0 0 0  XYZ
  end
  begin
     id 2 
     name lfemur
     direction 0.34202 -0.939693 0  
     length 6.58374  
     axis 0 0 20  XYZ
    dof rx ry rz
    limits (-160.0 20.0)
           (-70.0 70.0)
           (-60.0 70.0)
  end
  begin
     id 3 
     name ltibia
     direction 0.34202 -0.939693 0   
     length 6.62538   
     axis 0 0 20   XYZ
    dof rx
    limits (-10.0 170.0)
  end
  begin
     id 4 
     name lfoot
     direction 0.10455 -0.287249 0.952133   
     length 2.26699   
     axis -90 7.62852e-016 20   XYZ
    dof rx rz
    limits (-45.0 90.0)
           (-70.0 20.0)
  end
  begin
     id 5 
     name ltoes
     direction 1.53572e-011 -4.22322e-011 1   
     length 1.12949   
     axis -90 7.62852e-016 20   XYZ
    dof rx
    limits (-90.0 20.0)
  end
  begin
     id 6 
     name rhipjoint
     direction -0.728055 -0.574632 0.373811   
     length 2.66432  
     axis 0 0 0  XYZ 
  end
  begin
     id 7 
     name rfemur
     direction -0.34202 -0.939693 0   
     length 6.66732   
     axis 0 0 -20   XYZ
    dof rx ry rz
    limits (-160.0 20.0)
           (-70.0 70.0)
           (-70.0 60.0)
  end
  begin
     id 8 
     name rtibia
     direction -0.34202 -0.939693 0   
     length 6.59288   
     axis 0 0 -20   XYZ
    dof rx
    limits (-10.0 170.0)
 end
 begin
     id 9 
     name rfoot
     direction -0.119193 -0.327479 0.93731   
     length 2.38061  
     axis -90 -7.62852e-016 -20   XYZ
    dof rx rz
    limits (-45.0 90.0)
           (-20.0 70.0)
  end
  begin
     id 10 
     name rtoes
     direction -1.53547e-011 -4.21827e-011 1   
     length 1.17899   
     axis -90 -7.62852e-016 -20   XYZ
    dof rx
    limits (-90.0 20.0)
  end
  begin
     id 11 
     name lowerback
     direction -0.000416114 0.999912 -0.0132284   
     length 2.12109   
     axis 0 0 0   XYZ
    dof rx ry rz
    limits (-20.0 45.0)
           (-30.0 30.0)
           (-30.0 30.0)
  end
  begin
     id 12 
     name upperback
     direction -0.00136371 0.99809 0.0617608   
     length 2.10067   
     axis 0 0 0   XYZ
    dof rx ry rz
    limits (-20.0 45.0)
           (-30.0 30.0)
           (-30.0 30.0)
  end
  begin
     id 13 
     name thorax
     direction -3.43026e-005 0.997776 0.0666515   
     length 2.10618   
     axis 0 0 0   XYZ
    dof rx ry rz
    limits (-20.0 45.0)
           (-30.0 30.0)
           (-30.0 30.0)
  end
  begin
     id 14 
     name lowerneck
     direction 0.0398646 0.998418 0.0396592   
     length 1.83817   
     axis 0 0 0   XYZ
    dof rx ry rz
    limits (-20.0 45.0)
           (-30.0 30.0)
           (-30.0 30.0)
  end
  begin
     id 15 
     name upperneck
     direction -0.0367268 0.961527 -0.272244   
     length 1.81975   
     axis 0 0 0   XYZ
    dof rx ry rz
    limits (-20.0 45.0)
           (-30.0 30.0)
           (-30.0 30.0)
  end
  begin
     id 16
     name head
     direction -0.0182665 0.99536 -0.0944669  
     length 1.86026  
     axis 0 0 0   XYZ
    dof rx ry rz
    limits (-20.0 45.0)
           (-30.0 30.0)
           (-30.0 30.0)
  end
  begin
     id 17 
     name lclavicle
     direction 0.924239 0.361045 0.124212  
     length 3.26878  
     axis 0 0 0   XYZ
    dof ry rz
    limits (-20.0 10.0)
           (0.0 20.0)
  end
  begin
     id 18 
     name lhumerus
     direction 1 -4.48968e-011 -2.56583e-027   
     length 4.58538   
     axis 180 -30 -90   XYZ
    dof rx ry rz
    limits (-60.0 90.0)
           (-90.0 90.0)
           (-90.0 90.0)
  end
  begin
     id 19
     name lradius
     direction 1 -4.4898e-011 -5.50375e-027   
     length 2.68935   
     axis 180 -30 -90   XYZ
    dof rx
    limits (-10.0 170.0)
  end
  begin
     id 20
     name lwrist
     direction 1 -4.48939e-011 -1.48955e-026   
     length 1.34468   
     axis 9.0955e-015 90 90   XYZ
    dof ry
    limits (-180.0 0.0)
 end
  begin
     id 21 
     name lhand
     direction 1 -4.48936e-011 -2.97907e-026   
     length 0.585058   
     axis 1.90115e-014 90 90   XYZ
    dof rx rz
    limits (-90.0 90.0)
           (-45.0 45.0)
  end
  begin
     id 22 
     name lfingers
     direction 1 -4.49082e-011 -5.96235e-026   
     length 0.471689   
     axis 3.80223e-014 90 90   XYZ
    dof rx
    limits (0.0 90.0)
  end
  begin
     id 23
     name lthumb
     direction 0.707107 -6.3489e-011 0.707107   
     length 0.677253   
     axis -90 45 -3.84942e-014   XYZ
    dof rx rz
    limits (-45.0 45.0)
           (-45.0 45.0)
  end
  begin
     id 24 
     name rclavicle
     direction -0.923098 0.371783 0.0983239   
     length 3.19656  
     axis 0 0 0   XYZ 
    dof ry rz
    limits (-10.0 20.0)
           (-20.0 0.0)
  end
  begin
     id 25 
     name rhumerus
     direction -1 -4.48976e-011 -2.5492e-027  
     length 4.4745   
     axis 180 30 90   XYZ
    dof rx ry rz
    limits (-90.0 60.0)
           (-90.0 90.0)
           (-90.0 90.0)
  end
  begin
     id 26 
     name rradius
     direction -1 -4.48941e-011 -4.36555e-027   
     length 2.93896   
     axis 180 30 90   XYZ
    dof rx
    limits (-10.0 170.0)
  end
  begin
     id 27 
     name rwrist
     direction -1 -4.49044e-011 -1.49032e-026   
     length 1.46948   
     axis 9.0955e-015 -90 -90   XYZ
    dof ry
    limits (-180.0 0.0)
  end
  begin
     id 28
     name rhand
     direction -1 -4.48826e-011 -2.97749e-026   
     length 0.405092   
     axis 1.90115e-014 -90 -90   XYZ
    dof rx rz
    limits (-90.0 90.0)
           (-45.0 45.0)
  end
  begin
     id 29
     name rfingers
     direction -1 -4.49209e-011 -5.96602e-026   
     length 0.326596   
     axis 3.80223e-014 -90 -90   XYZ
    dof rx
    limits (0.0 90.0)
  end
  begin
     id 30
     name rthumb
     direction -0.707107 -6.34776e-011 0.707107   
     length 0.468928   
     axis -90 -45 3.84942e-014   XYZ
    dof rx rz
    limits (-45.0 45.0)
           (-45.0 45.0)
  end
:hierarchy
  begin
    root lhipjoint rhipjoint lowerback
    lhipjoint lfemur
    lfemur ltibia
    ltibia lfoot
    lfoot ltoes
    rhipjoint rfemur
    rfemur rtibia
    rtibia rfoot
    rfoot rtoes
    lowerback upperback
    upperback thorax
    thorax lowerneck lclavicle rclavicle
    lowerneck upperneck
    upperneck head
    lclavicle lhumerus
    lhumerus lradius
    lradius lwrist
    lwrist lhand lthumb
    lhand lfingers
    rclavicle rhumerus
    rhumerus rradius
    rradius rwrist
    rwrist rhand rthumb
    rhand rfingers
  end

#!OML:ASF H:\Punching\Project 1\Capture day 1\Session 1\female.ASF
:FULLY-SPECIFIED
:DEGREES
487
root -1.15856 15.4553 6.74954 20.4656 -0.00596154 -1.85724
lowerback 0.654857 -0.621512 -2.84516
upperback -5.68792 -0.894713 1.08678
thorax -6.21571 -0.266519 2.78004
lowerneck -8.62186 1.08623 9.78254
upperneck 25.3633 -0.401278 0.233563
head 9.44772 0.7463 -1.62064
rclavicle 5.31749e-015 -5.56597e-015
rhumerus 14.2468 25.5479 -81.4166
rradius 134.478
rwrist -43.609
rhand -18.5468 -2.88633
rfingers 7.12502
rthumb 7.74258 -32.7246
lclavicle 5.31749e-015 -5.56597e-015
lhumerus 17.1322 -31.2591 75.6549
lradius 133.618
lwrist 28.9179
lhand -14.3772 31.8401
lfingers 7.12502
lthumb 11.7653 61.4897
rfemur -48.6942 13.942 7.02517
rtibia 41.2804
rfoot -6.00761 -13.3585
rtoes 0.883666
lfemur 6.59586 -14.3171 -5.49866
ltibia 1.59028e-014
lfoot -9.05762 17.214
ltoes -24.1421
488
root -1.13772 15.433 6.75458 20.5125 -1.64099 -2.04068
lowerback 0.378422 -0.685031 -2.98847
upperback -5.71083 -0.980637 1.07491
thorax -6.07385 -0.305622 2.84857
lowerneck -8.36287 1.65838 10.5089
upperneck 25.6882 0.436406 -0.399902
head 9.56553 1.14365 -1.87695
rclavicle 2.3059e-014 -1.33186e-014
rhumerus 13.9643 26.1534 -81.9481
rradius 134.386
rwrist -43.4834
rhand -18.5666 -2.91684
rfingers 7.12502
rthumb 7.7235 -32.7558
lclavicle 2.3059e-014 -1.33186e-014
lhumerus 17.5587 -30.848 75.5984
lradius 132.492
lwrist 29.0595
lhand -14.7189 32.0132
lfingers 7.12502
lthumb 11.4359 61.6813
rfemur -49.254 14.2831 7.08381
rtibia 41.3474
rfoot -6.1278 -12.2779
rtoes -0.0786868
lfemur 7.28276 -12.8344 -5.97921
ltibia 1.27222e-014
lfoot -9.18098 16.8063
ltoes -24.8341
489
root -1.115 15.4071 6.76142 20.5431 -3.36929 -2.25524
lowerback 0.100304 -0.774682 -3.10289
upperback -5.7376 -1.09949 1.07363
thorax -5.93269 -0.362565 2.91294
lowerneck -8.02772 2.28233 11.2855
upperneck 26 1.3664 -1.08126
head 9.68512 1.58297 -2.1496
rclavicle 2.43511e-015 2.78299e-015
rhumerus 13.6623 26.7899 -82.4868
rradius 134.27
rwrist -43.4134
rhand -18.5875 -2.99039
rfingers 7.12502
rthumb 7.70328 -32.8301
lclavicle 2.43511e-015 2.78299e-015
lhumerus 17.9999 -30.3873 75.4872
lradius 131.311
lwrist 28.8162
lhand -15.0011 32.1028
lfingers 7.12502
lthumb 11.1637 61.7858
rfemur -49.7787 14.5947 7.20365
rtibia 41.3985
rfoot -6.31345 -11.0469
rtoes -1.18037
lfemur 8.02714 -11.2596 -6.46421
ltibia 2.22639e-014
lfoot -9.36022 16.3858
ltoes -25.4355
490
root -1.09104 15.3772 6.76965 20.5679 -5.1716 -2.49675
lowerback -0.183716 -0.888037 -3.18985
upperback -5.77148 -1.24842 1.0795
thorax -5.79344 -0.435874 2.96977
lowerneck -7.61071 2.94655 12.1117
upperneck 26.2999 2.37336 -1.8006
head 9.8087 2.05876 -2.43687
rclavicle 1.11816e-014 9.14409e-015
rhumerus 13.3387 27.45 -83.0155
rradius 134.132
rwrist -43.4139
rhand -18.5991 -3.06566
rfingers 7.12502
rthumb 7.69216 -32.9058
lclavicle 1.11816e-014 9.14409e-015
lhumerus 18.4938 -29.8876 75.3001
lradius 130.006
lwrist 28.1753
lhand -15.2068 32.0947
lfingers 7.12502
lthumb 10.9653 61.7883
rfemur -50.2698 14.8604 7.38461
rtibia 41.4311
rfoot -6.55804 -9.64949
rtoes -2.39966
lfemur 8.80749 -9.609 -6.94273
ltibia -4.77083e-014
lfoot -9.60805 15.9637
ltoes -25.904
491
root -1.06636 15.3434 6.78019 20.5781 -7.02721 -2.75357
lowerback -0.474028 -1.02869 -3.25398
upperback -5.80671 -1.43272 1.08935
thorax -5.64936 -0.528244 3.01802
lowerneck -7.11906 3.6438 12.9754
upperneck 26.5926 3.44686 -2.54226
head 9.9417 2.56735 -2.73237
rclavicle -4.47266e-016 8.34896e-015
rhumerus 12.993 28.1415 -83.5389
rradius 133.984
rwrist -43.4756
rhand -18.5965 -3.15808
rfingers 7.12502
rthumb 7.69465 -32.9981
lclavicle -4.47266e-016 8.34896e-015
lhumerus 19.0617 -29.3365 75.0232
lradius 128.525
lwrist 27.1548
lhand -15.2961 32.0689
lfingers 7.12502
lthumb 10.8792 61.7671
rfemur -50.7108 15.0798 7.61546
rtibia 41.4488
rfoot -6.86055 -8.08695
rtoes -3.62545
lfemur 9.62929 -7.90755 -7.41653
ltibia 2.22639e-014
lfoot -9.93973 15.5432
ltoes -26.2204
492
root -1.04152 15.3058 6.79312 20.5746 -8.92456 -3.02369
lowerback -0.768911 -1.18416 -3.28918
upperback -5.84394 -1.63622 1.09167
thorax -5.50383 -0.632118 3.04121
lowerneck -6.56436 4.35469 13.8764
upperneck 26.8855 4.55557 -3.28741
head 10.089 3.09694 -3.03268
rclavicle 2.4699e-014 2.78299e-015
rhumerus 12.6011 28.8525 -84.0623
rradius 133.856
rwrist -43.5777
rhand -18.594 -3.28683
rfingers 7.12502
rthumb 7.69708 -33.1267
lclavicle 2.4699e-014 2.78299e-015
lhumerus 19.7394 -28.7495 74.6467
lradius 126.802
lwrist 25.8137
lhand -15.2536 32.0687
lfingers 7.12502
lthumb 10.9201 61.7647
rfemur -51.1089 15.2593 7.89329
rtibia 41.46
rfoot -7.20343 -6.36712
rtoes -4.74668
lfemur 10.488 -6.16669 -7.87657
ltibia 5.40694e-014
lfoot -10.3491 15.1252
ltoes -26.4313
493
root -1.01689 15.2644 6.8087 20.5533 -10.8528 -3.30505
lowerback -1.06558 -1.3548 -3.29879
upperback -5.88552 -1.85959 1.09185
thorax -5.36105 -0.747357 3.04674
lowerneck -5.93702 5.07037 14.7908
upperneck 27.1834 5.69091 -4.02069
head 10.2506 3.64338 -3.32932
rclavicle 3.93594e-014 1.59028e-014
rhumerus 12.1692 29.5894 -84.5812
rradius 133.74
rwrist -43.7245
rhand -18.5836 -3.4142
rfingers 7.12502
rthumb 7.7071 -33.2538
lclavicle 3.93594e-014 1.59028e-014
lhumerus 20.5204 -28.108 74.1852
lradius 124.792
lwrist 24.2256
lhand -15.065 32.1255
lfingers 7.12502
lthumb 11.102 61.8119
rfemur -51.4718 15.4093 8.21812
rtibia 41.4836
rfoot -7.57271 -4.51869
rtoes -5.62811
lfemur 11.3881 -4.39868 -8.31423
ltibia 1.27222e-014
lfoot -10.8375 14.6967
ltoes -26.5329
494
root -0.992761 15.2193 6.82706 20.5072 -12.8128 -3.60354
lowerback -1.35569 -1.53032 -3.27784
upperback -5.93257 -2.08951 1.08843
thorax -5.22845 -0.867363 3.03
lowerneck -5.23002 5.77739 15.7086
upperneck 27.4889 6.83477 -4.72685
head 10.4241 4.19945 -3.61733
rclavicle -6.16232e-015 -1.59028e-014
rhumerus 11.6927 30.3391 -85.0966
rradius 133.639
rwrist -43.9074
rhand -18.578 -3.53925
rfingers 7.12502
rthumb 7.71247 -33.3786
lclavicle -6.16232e-015 -1.59028e-014
lhumerus 21.3994 -27.4045 73.655
lradius 122.469
lwrist 22.5195
lhand -14.7295 32.2432
lfingers 7.12502
lthumb 11.4256 61.9118
rfemur -51.81 15.5609 8.59496
rtibia 41.5448
rfoot -7.94399 -2.59386
rtoes -6.18359
lfemur 12.3424 -2.60385 -8.71582
ltibia -1.27222e-014
lfoot -11.3982 14.2388
ltoes -26.5585
